<svg width="820" height="920" viewBox="0 0 820 920" fill="none" xmlns="http://www.w3.org/2000/svg">
  <rect width="820" height="920" rx="56" fill="url(#bg)"/>
  <circle cx="150" cy="164" r="96" fill="url(#glow)" fill-opacity="0.9"/>
  <circle cx="700" cy="720" r="120" fill="url(#shadowGlow)" fill-opacity="0.45"/>

  <rect x="486" y="110" width="220" height="330" rx="34" fill="url(#cardDark)"/>
  <rect x="246" y="214" width="224" height="350" rx="34" fill="url(#cardLight)" stroke="#D8D8D3"/>
  <rect x="98" y="372" width="288" height="382" rx="36" fill="url(#cardFront)"/>

  <rect x="134" y="418" width="58" height="42" rx="12" fill="url(#chip)"/>
  <rect x="136" y="522" width="164" height="14" rx="7" fill="#F6F6F3"/>
  <rect x="136" y="556" width="210" height="14" rx="7" fill="#F6F6F3"/>
  <rect x="136" y="590" width="138" height="14" rx="7" fill="#F6F6F3"/>

  <rect x="80" y="72" width="182" height="58" rx="29" fill="#FFFFFF" fill-opacity="0.92" stroke="#E7E7E2"/>
  <text x="118" y="108" fill="#555555" font-family="Arial, sans-serif" font-size="28" font-weight="700">ведущие банки</text>

  <defs>
    <linearGradient id="bg" x1="410" y1="0" x2="410" y2="920" gradientUnits="userSpaceOnUse">
      <stop stop-color="#F7F7F6"/>
      <stop offset="1" stop-color="#ECECE8"/>
    </linearGradient>
    <radialGradient id="glow" cx="0" cy="0" r="1" gradientUnits="userSpaceOnUse" gradientTransform="translate(150 164) rotate(90) scale(96)">
      <stop stop-color="white"/>
      <stop offset="1" stop-color="white" stop-opacity="0"/>
    </radialGradient>
    <radialGradient id="shadowGlow" cx="0" cy="0" r="1" gradientUnits="userSpaceOnUse" gradientTransform="translate(700 720) rotate(90) scale(120)">
      <stop stop-color="#121212" stop-opacity="0.22"/>
      <stop offset="1" stop-color="#121212" stop-opacity="0"/>
    </radialGradient>
    <linearGradient id="cardDark" x1="596" y1="110" x2="596" y2="440" gradientUnits="userSpaceOnUse">
      <stop stop-color="#1E1E1E"/>
      <stop offset="1" stop-color="#353535"/>
    </linearGradient>
    <linearGradient id="cardLight" x1="358" y1="214" x2="358" y2="564" gradientUnits="userSpaceOnUse">
      <stop stop-color="white"/>
      <stop offset="1" stop-color="#ECECE7"/>
    </linearGradient>
    <linearGradient id="cardFront" x1="242" y1="372" x2="242" y2="754" gradientUnits="userSpaceOnUse">
      <stop stop-color="#202020"/>
      <stop offset="1" stop-color="#353535"/>
    </linearGradient>
    <linearGradient id="chip" x1="163" y1="418" x2="163" y2="460" gradientUnits="userSpaceOnUse">
      <stop stop-color="#F4F4F1"/>
      <stop offset="1" stop-color="#C8C8C3"/>
    </linearGradient>
  </defs>
</svg>
